STARTFONT 2.1
FONT -Monotype-Nimrod-Regular-I-Normal--33-240-100-100-P-201-iso8859-5
SIZE 24 100 100
FONTBOUNDINGBOX 47 40 -6 -8

STARTPROPERTIES 24
FOUNDRY "Monotype"
FAMILY_NAME "Nimrod"
WEIGHT_NAME "Regular"
SLANT "I"
SETWIDTH_NAME "Normal"
ADD_STYLE_NAME ""
PIXEL_SIZE 33
POINT_SIZE 240
RESOLUTION_X 100
RESOLUTION_Y 100
SPACING "P"
AVERAGE_WIDTH 201
CHARSET_REGISTRY "iso8859"
CHARSET_ENCODING "5"
FACE_NAME "Nimrod Inclined ISO Latin Cyrillic"
_DEC_DEVICE_FONTNAMES "PS=nimrod-in-latcyrillic"
COPYRIGHT "Copyright (c) 1993 Monotype Typography Ltd."
CAP_HEIGHT 29
X_HEIGHT 21
WEIGHT 10
QUAD_WIDTH 23
DEFAULT_CHAR 160
FONT_DESCENT 8
FONT_ASCENT 32
ENDPROPERTIES

CHARS 191

STARTCHAR space
ENCODING 32
SWIDTH 250 0
DWIDTH 8 0
BBX 0 0 0 0
BITMAP
ENDCHAR

STARTCHAR exclam
ENCODING 33
SWIDTH 354 0
DWIDTH 12 0
BBX 10 25 2 0
BITMAP
03C0
03C0
03C0
07C0
0780
0780
0700
0700
0600
0600
0C00
0C00
0C00
0800
0800
1800
1000
0000
0000
0000
0000
F000
F000
F000
F000
ENDCHAR

STARTCHAR quotedbl
ENCODING 34
SWIDTH 417 0
DWIDTH 14 0
BBX 10 9 5 13
BITMAP
71C0
71C0
F3C0
E380
E380
C300
C300
8200
8200
ENDCHAR

STARTCHAR numbersign
ENCODING 35
SWIDTH 667 0
DWIDTH 22 0
BBX 19 22 2 0
BITMAP
030180
020100
020300
060300
060300
060200
FFFFE0
FFFFE0
0C0600
0C0600
0C0400
080C00
180C00
180C00
FFFFE0
FFFFE0
101800
301800
301800
301800
301000
603000
ENDCHAR

STARTCHAR dollar
ENCODING 36
SWIDTH 500 0
DWIDTH 17 0
BBX 18 30 1 -5
BITMAP
000C00
000800
00FE00
01DB80
031980
0711C0
0611C0
0633C0
073380
072000
07A000
03E000
01E000
007000
00F800
00DC00
00DC00
009E00
718E00
F18E00
F18E00
E10C00
E31C00
733800
3FF000
070000
060000
060000
040000
0C0000
ENDCHAR

STARTCHAR percent
ENCODING 37
SWIDTH 1000 0
DWIDTH 33 0
BBX 23 24 7 -1
BITMAP
0F800C
1CC008
38C010
70C020
71C040
E1C0C0
E1C180
E38300
C38600
C70C00
CE0800
7C107C
0020C6
0041C6
00C386
01838E
03070E
06070E
0C071C
08061C
100638
200670
4003E0
C00000
ENDCHAR

STARTCHAR ampersand
ENCODING 38
SWIDTH 854 0
DWIDTH 28 0
BBX 26 25 1 0
BITMAP
001F8000
0039C000
00706000
00606000
00E06000
00E06000
00E0E000
00E1C000
00E38000
00FE0000
00F00000
07F07FC0
0E787FC0
3C381E00
38380C00
703C1800
701C1000
F01E3000
F00E6000
F00FC080
70078180
7807C300
3C0DFE00
1FF1FC00
0FC07000
ENDCHAR

STARTCHAR quoteright
ENCODING 39
SWIDTH 281 0
DWIDTH 9 0
BBX 6 9 5 16
BITMAP
38
3C
3C
3C
0C
08
38
E0
40
ENDCHAR

STARTCHAR parenleft
ENCODING 40
SWIDTH 354 0
DWIDTH 12 0
BBX 13 31 2 -6
BITMAP
0038
0060
00C0
0180
0300
0700
0E00
1C00
1C00
3800
3800
7800
7000
F000
F000
F000
E000
E000
E000
E000
E000
E000
E000
7000
7000
3000
3000
1800
1800
0C00
0400
ENDCHAR

STARTCHAR parenright
ENCODING 41
SWIDTH 354 0
DWIDTH 12 0
BBX 13 31 -2 -6
BITMAP
0180
0080
00C0
0060
0060
0070
0070
0038
0038
0038
0038
0038
0038
0038
0038
0078
0078
0070
0070
00F0
00E0
01E0
01C0
0380
0380
0700
0E00
1C00
3800
6000
C000
ENDCHAR

STARTCHAR asterisk
ENCODING 42
SWIDTH 469 0
DWIDTH 15 0
BBX 14 13 4 12
BITMAP
0380
0380
6380
F300
F300
7A78
07FC
0E78
7B00
F380
F380
63C0
01C0
ENDCHAR

STARTCHAR plus
ENCODING 43
SWIDTH 667 0
DWIDTH 22 0
BBX 18 18 2 2
BITMAP
00C000
00C000
00C000
00C000
00C000
00C000
00C000
00C000
FFFFC0
FFFFC0
00C000
00C000
00C000
00C000
00C000
00C000
00C000
00C000
ENDCHAR

STARTCHAR comma
ENCODING 44
SWIDTH 281 0
DWIDTH 9 0
BBX 6 9 -1 -5
BITMAP
38
3C
3C
3C
0C
08
30
E0
40
ENDCHAR

STARTCHAR minus
ENCODING 45
SWIDTH 667 0
DWIDTH 22 0
BBX 18 2 2 10
BITMAP
FFFFC0
FFFFC0
ENDCHAR

STARTCHAR period
ENCODING 46
SWIDTH 281 0
DWIDTH 9 0
BBX 4 4 1 0
BITMAP
F0
F0
F0
F0
ENDCHAR

STARTCHAR slash
ENCODING 47
SWIDTH 510 0
DWIDTH 17 0
BBX 15 28 1 -1
BITMAP
0006
000C
000C
0008
0018
0010
0030
0020
0060
0040
00C0
0080
0180
0180
0300
0300
0600
0600
0C00
0C00
1800
1800
3000
3000
6000
6000
C000
C000
ENDCHAR

STARTCHAR zero
ENCODING 48
SWIDTH 500 0
DWIDTH 17 0
BBX 16 23 2 0
BITMAP
0070
01FC
078E
0F06
0E07
1E07
1C07
3C07
3807
780F
780E
700E
701E
F01E
F01C
E03C
E03C
E038
E070
E070
60E0
33C0
1F00
ENDCHAR

STARTCHAR one
ENCODING 49
SWIDTH 500 0
DWIDTH 17 0
BBX 13 23 2 0
BITMAP
0018
0070
07F0
0FF0
00F0
00E0
00E0
00E0
01C0
01C0
01C0
03C0
0380
0380
0380
0780
0700
0700
0700
0E00
0E00
FFE0
FFE0
ENDCHAR

STARTCHAR two
ENCODING 50
SWIDTH 500 0
DWIDTH 17 0
BBX 18 23 -1 0
BITMAP
007C00
01FF00
030780
0703C0
0701C0
0781C0
0781C0
0783C0
000380
000780
000F00
001E00
003C00
00F000
01E000
038000
070000
0C0300
180300
200600
7FFE00
7FFC00
FFFC00
ENDCHAR

STARTCHAR three
ENCODING 51
SWIDTH 500 0
DWIDTH 17 0
BBX 16 23 1 0
BITMAP
00F0
03FC
060E
0E07
0F07
0F07
0607
000F
001E
003C
0FF0
0FE0
0038
001C
001C
201C
701C
F03C
E03C
E078
60F0
3FE0
0F00
ENDCHAR

STARTCHAR four
ENCODING 52
SWIDTH 500 0
DWIDTH 17 0
BBX 17 23 1 0
BITMAP
000380
000700
000F00
001F00
003300
003600
006E00
00CE00
018E00
031C00
061C00
0C1C00
183800
303800
403800
7FFE00
FFFE00
007000
007000
00E000
00E000
07FC00
07FC00
ENDCHAR

STARTCHAR five
ENCODING 53
SWIDTH 500 0
DWIDTH 17 0
BBX 18 23 1 0
BITMAP
01FFC0
03FF80
03FF80
060000
060000
060000
0C0000
09E000
0FF800
1C1C00
181E00
000E00
000E00
000E00
000E00
701E00
701E00
F01C00
F03C00
E07800
70F000
3FC000
0F0000
ENDCHAR

STARTCHAR six
ENCODING 54
SWIDTH 500 0
DWIDTH 17 0
BBX 16 23 2 0
BITMAP
007C
01FE
038F
070F
0E0F
1C06
1C00
3C00
3800
79E0
73F8
7C38
783C
F01C
F01C
E01C
E03C
E03C
E038
6078
7070
39E0
1F80
ENDCHAR

STARTCHAR seven
ENCODING 55
SWIDTH 500 0
DWIDTH 17 0
BBX 15 23 4 0
BITMAP
1FFE
3FFE
3FFC
300C
6018
6030
4060
C0E0
00C0
01C0
0380
0300
0700
0600
0E00
1E00
1C00
3C00
3C00
3800
7800
7800
7800
ENDCHAR

STARTCHAR eight
ENCODING 56
SWIDTH 500 0
DWIDTH 17 0
BBX 16 23 2 0
BITMAP
01FC
078E
0E07
0E07
1C07
1C07
1C07
1C0E
0C1E
0238
07E0
1C78
381C
701C
701C
F01C
E01C
E03C
E038
E078
7070
79E0
1F80
ENDCHAR

STARTCHAR nine
ENCODING 57
SWIDTH 500 0
DWIDTH 17 0
BBX 16 23 1 0
BITMAP
00F0
03FC
0F0E
1E06
1C07
3C07
3C07
3807
380F
380F
381E
1C3E
0FFE
079E
001C
003C
0038
6078
F070
F0E0
F1C0
7F80
1C00
ENDCHAR

STARTCHAR colon
ENCODING 58
SWIDTH 281 0
DWIDTH 9 0
BBX 8 18 1 0
BITMAP
0F
0F
0F
0F
00
00
00
00
00
00
00
00
00
00
F0
F0
F0
F0
ENDCHAR

STARTCHAR semicolon
ENCODING 59
SWIDTH 281 0
DWIDTH 9 0
BBX 10 23 -1 -5
BITMAP
03C0
03C0
03C0
03C0
0000
0000
0000
0000
0000
0000
0000
0000
0000
0000
3800
3C00
3C00
3C00
0C00
0800
3000
E000
4000
ENDCHAR

STARTCHAR less
ENCODING 60
SWIDTH 667 0
DWIDTH 22 0
BBX 18 16 2 3
BITMAP
000040
0001C0
000F80
003C00
01F000
07C000
1E0000
F80000
E00000
780000
0F0000
03C000
00F800
001E00
000780
0001C0
ENDCHAR

STARTCHAR equal
ENCODING 61
SWIDTH 667 0
DWIDTH 22 0
BBX 18 10 2 6
BITMAP
FFFFC0
FFFFC0
000000
000000
000000
000000
000000
000000
FFFFC0
FFFFC0
ENDCHAR

STARTCHAR greater
ENCODING 62
SWIDTH 667 0
DWIDTH 22 0
BBX 18 16 2 3
BITMAP
800000
E00000
7C0000
1F0000
03C000
00F800
001E00
000780
0001C0
000780
003E00
00F000
07C000
1E0000
780000
E00000
ENDCHAR

STARTCHAR question
ENCODING 63
SWIDTH 427 0
DWIDTH 14 0
BBX 13 25 3 0
BITMAP
07E0
1C70
1C38
3C38
3C38
1838
0078
00F0
01F0
03C0
0780
0700
0C00
0C00
1800
1800
1000
0000
0000
0000
0000
F000
F000
F000
F000
ENDCHAR

STARTCHAR at
ENCODING 64
SWIDTH 917 0
DWIDTH 30 0
BBX 28 30 1 -7
BITMAP
000FF000
00700C00
01C00200
03000100
06000080
0C000040
18000040
30039820
300C5820
60183820
60383820
40303020
40603020
C0E07020
C0C06040
C0C06040
C1C0E040
C1C16080
41C2C180
41C4C300
60F8C610
20707830
30000020
10000060
180000C0
0C000180
06000300
03800600
00E03800
001FC000
ENDCHAR

STARTCHAR A
ENCODING 65
SWIDTH 771 0
DWIDTH 25 0
BBX 26 25 -2 0
BITMAP
00003000
00007000
00007000
0000F000
0001F000
0001B800
00037800
00063800
00063800
000C3800
00183800
00183C00
00303C00
00601C00
00401C00
00FFFC00
00FFFC00
01801E00
03001E00
03000E00
06000E00
0E000E00
1E000F00
7FC07FC0
FF80FFC0
ENDCHAR

STARTCHAR B
ENCODING 66
SWIDTH 740 0
DWIDTH 24 0
BBX 25 25 -1 0
BITMAP
03FFF000
03FFFE00
00780F00
00700780
00F00780
00F00780
00E00780
00E00780
01E00F00
01E01E00
01C03C00
01FFE000
03FFF000
03C03C00
03C01E00
07800E00
07800F00
07800F00
07800F00
0F001F00
0F001E00
0F003E00
1F007C00
FFFFF000
FFFF8000
ENDCHAR

STARTCHAR C
ENCODING 67
SWIDTH 708 0
DWIDTH 23 0
BBX 22 25 2 0
BITMAP
003FC0
00F0F0
03C03C
07801C
0F001C
1E001C
1E000C
3C000C
3C0008
780000
780000
F80000
F00000
F00000
F00000
F00000
F00000
F00030
F00030
780060
7800C0
3C01C0
1F0700
0FFE00
03F800
ENDCHAR

STARTCHAR D
ENCODING 68
SWIDTH 792 0
DWIDTH 26 0
BBX 27 25 -1 0
BITMAP
03FFF000
03FFFE00
00780F00
00780380
00700380
00F001C0
00F001C0
00F001E0
00E001E0
01E001E0
01E001E0
01C001E0
01C001E0
03C003C0
03C003C0
038003C0
07800780
07800780
07800F00
07000F00
0F001E00
0F003C00
0F00F800
7FFFE000
FFFE0000
ENDCHAR

STARTCHAR E
ENCODING 69
SWIDTH 708 0
DWIDTH 23 0
BBX 25 25 0 0
BITMAP
07FFFF80
07FFFF00
00F00F00
00F00700
00E00700
00E00600
01E00600
01E0C600
01C08000
03C18000
03C38000
03FF8000
03FF0000
07870000
07870000
07030000
07060400
0F060C00
0F000C00
0E001800
0E003800
1E007800
1E01F800
FFFFF000
FFFFF000
ENDCHAR

STARTCHAR F
ENCODING 70
SWIDTH 698 0
DWIDTH 23 0
BBX 25 25 0 0
BITMAP
07FFFF80
07FFFF80
00F00F80
00F00700
00E00300
00E00300
01E00300
01E06300
01C0C000
01C0C000
03C1C000
03FF8000
03FF8000
07838000
07838000
07030000
07030000
0F030000
0F000000
0E000000
0E000000
1E000000
1E000000
FFF00000
FFE00000
ENDCHAR

STARTCHAR G
ENCODING 71
SWIDTH 802 0
DWIDTH 26 0
BBX 24 25 2 0
BITMAP
000FC0
007FF0
01E03C
03C01E
07800E
0F000E
1E0006
3C0006
3C0004
780000
780000
780000
F00000
F003FF
F003FF
F00078
F00078
F00070
F00070
7000F0
7800F0
3800E0
1C03E0
0F0F80
03FE00
ENDCHAR

STARTCHAR H
ENCODING 72
SWIDTH 812 0
DWIDTH 27 0
BBX 30 25 0 0
BITMAP
07FF1FFC
07FE1FF8
00F003C0
00F003C0
00E003C0
00E003C0
01E00380
01E00780
01C00780
01C00700
03C00700
03FFFF00
03FFFF00
07800E00
07801E00
07001E00
07001E00
0F001C00
0F003C00
0E003C00
0E003C00
1E003800
1E007800
FFC3FF00
FFC3FF00
ENDCHAR

STARTCHAR I
ENCODING 73
SWIDTH 417 0
DWIDTH 14 0
BBX 17 25 0 0
BITMAP
07FF80
07FF00
007800
007000
00F000
00F000
00F000
00E000
01E000
01E000
01C000
01C000
03C000
03C000
038000
078000
078000
078000
070000
0F0000
0F0000
0F0000
0F0000
FFE000
FFE000
ENDCHAR

STARTCHAR J
ENCODING 74
SWIDTH 604 0
DWIDTH 20 0
BBX 23 25 0 0
BITMAP
000FFE
001FFE
0000E0
0001E0
0001E0
0001C0
0001C0
0003C0
0003C0
000380
000780
000780
000780
000700
000F00
100F00
780F00
F80E00
F81E00
F01E00
E03C00
603800
707800
3FE000
0F8000
ENDCHAR

STARTCHAR K
ENCODING 75
SWIDTH 760 0
DWIDTH 25 0
BBX 28 25 0 0
BITMAP
07FF3FF0
07FE3FF0
00F00780
00F00E00
00E01C00
00E03800
01E07000
01E0C000
01C38000
03C60000
03CF0000
03DF0000
03B70000
07E78000
07C38000
0783C000
0701C000
0F01E000
0F01E000
0E00E000
0E00F000
1E007000
1E007800
FFC7FF00
FFC7FF00
ENDCHAR

STARTCHAR L
ENCODING 76
SWIDTH 667 0
DWIDTH 22 0
BBX 21 25 0 0
BITMAP
07FF80
07FF00
00F000
00F000
00F000
00E000
01E000
01E000
01C000
01C000
03C000
03C000
038000
038000
078000
078000
070008
0F0018
0F0018
0F0038
0E0070
1E00F0
1E01F0
FFFFE0
FFFFE0
ENDCHAR

STARTCHAR M
ENCODING 77
SWIDTH 979 0
DWIDTH 32 0
BBX 35 25 0 0
BITMAP
07FC001FE0
07EC0037E0
00DC003700
00DC006E00
00DC00EE00
009C00DE00
009C019E00
019C019C00
019E031C00
011E063C00
031E063C00
030E0C3800
030E0C7800
020E187800
060E307800
060E307000
060E60F000
040E60F000
0C0FC0E000
0C0F80E000
0C0F81E000
1C0F01E000
3C0601E000
FF860FFC00
FF841FF800
ENDCHAR

STARTCHAR N
ENCODING 78
SWIDTH 823 0
DWIDTH 27 0
BBX 31 25 0 0
BITMAP
07F007FE
07F807FC
00F800F0
00DC00E0
00DC00C0
00DE00C0
009E00C0
018E0080
018F0180
01870180
01078180
03038100
0303C300
0201C300
0601E300
0601E200
0600E600
0400F600
0C007400
0C007C00
0C003C00
1C003C00
3C003800
FFC01800
FF801800
ENDCHAR

STARTCHAR O
ENCODING 79
SWIDTH 792 0
DWIDTH 26 0
BBX 24 25 2 0
BITMAP
003FC0
00F0F0
01C038
07801C
0F000E
1E000E
1E000F
3C000F
3C000F
78000F
78000F
78000F
F8001F
F0001E
F0001E
F0001E
F0003C
F0003C
700078
700078
7800F0
3801E0
1C0380
0F1F00
03FC00
ENDCHAR

STARTCHAR P
ENCODING 80
SWIDTH 698 0
DWIDTH 23 0
BBX 25 25 -1 0
BITMAP
03FFF000
03FFFC00
00780E00
00700700
00F00780
00F00780
00F00780
00E00780
01E00780
01E00F00
01E01F00
01C03E00
03FFF800
03FFC000
03800000
03800000
07800000
07800000
07000000
0F000000
0F000000
0F000000
0F000000
7FE00000
FFE00000
ENDCHAR

STARTCHAR Q
ENCODING 81
SWIDTH 792 0
DWIDTH 26 0
BBX 24 29 2 -4
BITMAP
000F80
007FF0
01E078
03801C
07001E
0F000E
1E000E
1E000F
3C000F
3C000F
78000F
78000F
78000F
F8001F
F0001E
F1F01E
F7F83E
F43C3C
F81E78
780E78
780EF0
380FE0
1C0740
0E1F80
03FF80
0003C0
0001F0
00007F
00001F
ENDCHAR

STARTCHAR R
ENCODING 82
SWIDTH 760 0
DWIDTH 25 0
BBX 24 25 0 0
BITMAP
07FFE0
07FFFC
00F01E
00F00F
00E00F
00E00F
01E00F
01E00F
01C01E
03C03E
03C07C
03FFF0
03FF80
0783C0
0781C0
0701E0
0701E0
0F00E0
0F00F0
0E00F0
0E0070
1E0078
1E0078
FFE07E
FFC03E
ENDCHAR

STARTCHAR S
ENCODING 83
SWIDTH 646 0
DWIDTH 21 0
BBX 21 25 1 0
BITMAP
007F80
01E1F0
0380F8
070070
070070
0F0030
0F0020
0F8020
07C000
07E000
03F800
01FE00
007F00
001F80
0007C0
0003E0
3001E0
3001E0
7001E0
7001E0
7001C0
780380
FC0780
7FFE00
03F000
ENDCHAR

STARTCHAR T
ENCODING 84
SWIDTH 750 0
DWIDTH 25 0
BBX 24 25 3 0
BITMAP
1FFFFF
1FFFFE
1E1E0E
381C0E
301C06
703C06
603C04
40380C
C0380C
007800
007800
007000
00F000
00F000
00F000
00E000
01E000
01E000
01C000
01C000
03C000
03C000
03C000
3FFC00
7FF800
ENDCHAR

STARTCHAR U
ENCODING 85
SWIDTH 760 0
DWIDTH 25 0
BBX 24 25 4 0
BITMAP
7FE1FF
FFE1FF
0F0038
1E0038
1E0030
1E0030
1C0030
3C0020
3C0060
380060
380060
780040
7800C0
7000C0
700080
F00180
F00180
E00180
E00300
E00300
E00600
F00E00
781C00
3FF800
0FE000
ENDCHAR

STARTCHAR V
ENCODING 86
SWIDTH 740 0
DWIDTH 24 0
BBX 25 25 4 0
BITMAP
FFC0FF80
FF81FF00
1C003C00
1C003800
1C003000
1E006000
1E006000
1E00C000
0E00C000
0E018000
0E030000
0E030000
0F060000
0F040000
0F0C0000
07180000
07180000
07300000
07600000
07E00000
07C00000
07C00000
03800000
03000000
03000000
ENDCHAR

STARTCHAR W
ENCODING 87
SWIDTH 979 0
DWIDTH 32 0
BBX 33 25 3 0
BITMAP
7F8FFC7F80
FF9FF87F80
1C01C01C00
1C01C01800
1C01C01800
1C01C03000
1C03C03000
1E03C06000
0E06C06000
0E0DC0C000
0E0DE0C000
0E19E18000
0E19E10000
0E30E30000
0E30E20000
0E60E60000
0E60EC0000
0EC0EC0000
0EC0F80000
0F80F80000
0F80F00000
0F00F00000
0E00E00000
0600E00000
0400C00000
ENDCHAR

STARTCHAR X
ENCODING 88
SWIDTH 750 0
DWIDTH 25 0
BBX 30 25 -2 0
BITMAP
03FF87FC
03FF07FC
007801E0
003C01C0
003C0380
001E0700
001E0E00
000F1C00
000F3800
00077000
0007E000
0003C000
0003C000
0007C000
000DE000
0018E000
0030F000
0060F000
00C07800
01807800
03003C00
07003C00
1F003E00
7FE1FF80
FFC1FF80
ENDCHAR

STARTCHAR Y
ENCODING 89
SWIDTH 708 0
DWIDTH 23 0
BBX 24 25 4 0
BITMAP
FF81FF
FF83FE
3C0078
1C0070
1E0060
0E00C0
0F0180
070300
078700
038E00
03CC00
03D800
01F000
01E000
01E000
01E000
01C000
03C000
03C000
03C000
038000
078000
078000
3FF800
7FF000
ENDCHAR

STARTCHAR Z
ENCODING 90
SWIDTH 687 0
DWIDTH 23 0
BBX 23 25 1 0
BITMAP
01FFFE
03FFFE
03C03C
03807C
0700F8
0600F0
0601E0
0C03C0
000780
000F00
001E00
003E00
003C00
007800
00F000
01E000
03C018
078030
0F8030
0F0070
1E00E0
3C01E0
7007E0
FFFFC0
FFFFC0
ENDCHAR

STARTCHAR bracketleft
ENCODING 91
SWIDTH 344 0
DWIDTH 11 0
BBX 14 30 0 -5
BITMAP
00FC
01FC
01C0
01C0
01C0
0380
0380
0380
0780
0700
0700
0700
0F00
0E00
0E00
0E00
1C00
1C00
1C00
3C00
3800
3800
3800
7800
7000
7000
7000
E000
FE00
FE00
ENDCHAR

STARTCHAR backslash
ENCODING 92
SWIDTH 510 0
DWIDTH 17 0
BBX 15 28 1 -1
BITMAP
C000
4000
6000
2000
3000
1000
1800
1800
0C00
0C00
0600
0600
0300
0300
0180
0180
00C0
00C0
0060
0060
0030
0030
0018
0018
000C
000C
0004
0006
ENDCHAR

STARTCHAR bracketright
ENCODING 93
SWIDTH 344 0
DWIDTH 11 0
BBX 14 30 -2 -5
BITMAP
01FC
01FC
003C
0038
0038
0038
0070
0070
0070
0070
00E0
00E0
00E0
01E0
01C0
01C0
01C0
0380
0380
0380
0380
0700
0700
0700
0F00
0E00
0E00
0E00
FE00
FC00
ENDCHAR

STARTCHAR asciicircum
ENCODING 94
SWIDTH 427 0
DWIDTH 14 0
BBX 14 11 1 11
BITMAP
0300
0380
0680
04C0
0C40
1860
1030
3010
2018
6008
C00C
ENDCHAR

STARTCHAR underscore
ENCODING 95
SWIDTH 500 0
DWIDTH 17 0
BBX 17 1 0 -7
BITMAP
FFFF80
ENDCHAR

STARTCHAR quoteleft
ENCODING 96
SWIDTH 281 0
DWIDTH 9 0
BBX 6 9 5 16
BITMAP
0C
38
60
C0
E0
F0
F0
F0
60
ENDCHAR

STARTCHAR a
ENCODING 97
SWIDTH 604 0
DWIDTH 20 0
BBX 18 18 1 0
BITMAP
03E080
07F380
0F1B80
1E0F00
3C0F00
380700
780E00
700E00
F00E00
F01E00
E01C00
E01C00
E01C00
E038C0
E07980
71BB00
7F3E00
3E1C00
ENDCHAR

STARTCHAR b
ENCODING 98
SWIDTH 604 0
DWIDTH 20 0
BBX 18 25 1 0
BITMAP
0FE000
0FC000
01C000
01C000
038000
038000
038000
079E00
073F80
076380
0781C0
0F01C0
0E01C0
0E01C0
1E01C0
1C03C0
1C03C0
1C0380
380780
380700
380F00
780E00
7C1C00
6E7800
C7E000
ENDCHAR

STARTCHAR c
ENCODING 99
SWIDTH 448 0
DWIDTH 15 0
BBX 14 18 1 0
BITMAP
03F0
0E38
1C3C
1C3C
3818
7800
7000
F000
F000
E000
E000
E000
E000
E018
F070
70E0
7F80
1E00
ENDCHAR

STARTCHAR d
ENCODING 100
SWIDTH 604 0
DWIDTH 20 0
BBX 19 25 1 0
BITMAP
0007E0
0006E0
0001E0
0001C0
0001C0
0001C0
0003C0
03E380
07F380
0F1B80
1E0F00
3C0F00
380700
780E00
700E00
F00E00
F01E00
F01C00
E01C00
E01C00
E038C0
E07980
71DB00
7F3E00
1E1C00
ENDCHAR

STARTCHAR e
ENCODING 101
SWIDTH 448 0
DWIDTH 15 0
BBX 14 18 1 0
BITMAP
00F0
07F8
0E1C
1C1C
381C
381C
7038
7070
F1E0
E780
FE00
F000
E000
E000
F038
70E0
3FC0
1F00
ENDCHAR

STARTCHAR f
ENCODING 102
SWIDTH 344 0
DWIDTH 11 0
BBX 23 31 -6 -6
BITMAP
00007C
0001FE
00039E
00070E
000700
000E00
000E00
000E00
00FFC0
00FF80
001C00
001C00
003800
003800
003800
003800
007000
007000
007000
007000
006000
00E000
00E000
00E000
00C000
01C000
018000
638000
F30000
7E0000
380000
ENDCHAR

STARTCHAR g
ENCODING 103
SWIDTH 583 0
DWIDTH 19 0
BBX 21 24 -1 -6
BITMAP
007E00
01E3F8
0381B0
0381C0
0701C0
0701C0
0701C0
070380
030380
018F00
03FC00
0C0000
180000
180000
1FF800
17FE00
0FFF00
380700
700300
E00300
E00700
E00E00
783C00
1FF000
ENDCHAR

STARTCHAR h
ENCODING 104
SWIDTH 635 0
DWIDTH 21 0
BBX 20 25 1 0
BITMAP
0FC000
0DC000
03C000
038000
038000
038000
038000
070F80
071FC0
0773C0
0EC1C0
0F81C0
0F03C0
1E0380
1C0380
1C0780
1C0700
380700
380F00
380E00
701E30
701C60
701CC0
F01F80
E00E00
ENDCHAR

STARTCHAR i
ENCODING 105
SWIDTH 344 0
DWIDTH 11 0
BBX 9 25 2 0
BITMAP
0700
0780
0780
0700
0000
0000
0000
7F00
FE00
1E00
0E00
1E00
1C00
1C00
3C00
3800
3800
7800
7000
7000
F180
E300
E600
FC00
7000
ENDCHAR

STARTCHAR j
ENCODING 106
SWIDTH 344 0
DWIDTH 11 0
BBX 15 31 -4 -6
BITMAP
000C
001E
001E
000C
0000
0000
0000
00FC
00FC
001C
003C
0038
0038
0038
0038
0070
0070
0070
0070
00E0
00E0
00E0
00E0
01C0
01C0
01C0
0180
7380
F300
7E00
3C00
ENDCHAR

STARTCHAR k
ENCODING 107
SWIDTH 594 0
DWIDTH 20 0
BBX 18 25 1 0
BITMAP
0FC000
1FC000
038000
038000
038000
078000
070000
070380
0F0FC0
0E1FC0
0E31C0
0E6000
1EC000
1D8000
1D0000
3DF000
3E3800
3C3800
383800
703800
707800
707180
F07300
E07E00
E03800
ENDCHAR

STARTCHAR l
ENCODING 108
SWIDTH 344 0
DWIDTH 11 0
BBX 10 26 2 0
BITMAP
01C0
1F80
0380
0780
0700
0700
0700
0F00
0E00
0E00
1E00
1C00
1C00
1C00
3C00
3800
3800
7800
7000
7000
7180
F300
E600
EC00
FC00
7000
ENDCHAR

STARTCHAR m
ENCODING 109
SWIDTH 906 0
DWIDTH 30 0
BBX 28 18 1 0
BITMAP
3F0F0780
7F3F8FC0
0F7399C0
0EC3B1C0
0F83C1C0
0F07C1C0
1E078380
1C070380
1C070380
1C0E0300
380E0700
380E0700
381E0700
781C0E30
701C0E60
701C0EC0
70380F80
E0380700
ENDCHAR

STARTCHAR n
ENCODING 110
SWIDTH 635 0
DWIDTH 21 0
BBX 20 18 1 0
BITMAP
3F0F80
7F3FC0
0E73C0
0EC1C0
0F81C0
0F03C0
1E0380
1C0380
1C0780
3C0700
380F00
380F00
380E00
701E30
701C60
701CC0
F01F80
E00E00
ENDCHAR

STARTCHAR o
ENCODING 111
SWIDTH 531 0
DWIDTH 18 0
BBX 16 18 1 0
BITMAP
03F8
071C
1E0E
1C07
3807
7807
7007
F007
F00F
F00F
E00F
E00E
E01E
E01C
6038
7078
38E0
1FC0
ENDCHAR

STARTCHAR p
ENCODING 112
SWIDTH 594 0
DWIDTH 20 0
BBX 22 24 -3 -6
BITMAP
03F1E0
03F3F8
007E38
00781C
00F01C
00E01C
00E01C
01E01C
01C03C
01C03C
01C038
038078
038070
03C0F0
07C1E0
0763C0
073F80
071E00
0E0000
0E0000
0E0000
1E0000
1E0000
FFC000
ENDCHAR

STARTCHAR q
ENCODING 113
SWIDTH 573 0
DWIDTH 19 0
BBX 18 24 1 -6
BITMAP
01F8C0
071D80
0E0F80
1C0780
3C0700
380700
780700
700E00
F00E00
F00E00
E01E00
E01C00
E01C00
E03C00
E07800
71D800
7F3800
3E7800
007000
007000
007000
00F000
00F000
0FFC00
ENDCHAR

STARTCHAR r
ENCODING 114
SWIDTH 490 0
DWIDTH 16 0
BBX 15 18 1 0
BITMAP
7E1E
7E3E
0E7E
0ECE
0D80
1F00
1E00
1C00
1C00
3C00
3800
3800
3800
7000
7000
7000
E000
E000
ENDCHAR

STARTCHAR s
ENCODING 115
SWIDTH 448 0
DWIDTH 15 0
BBX 15 18 0 0
BITMAP
03F8
0E3C
0C1E
1C1E
1C0C
1E00
0F00
0F80
07E0
03F0
00F8
0078
0038
7038
F038
7070
78E0
1FC0
ENDCHAR

STARTCHAR t
ENCODING 116
SWIDTH 354 0
DWIDTH 12 0
BBX 10 23 2 0
BITMAP
0180
0300
0300
0700
0E00
7FC0
EFC0
1E00
1C00
1C00
1C00
3800
3800
3800
7800
7000
7000
7180
E100
E300
E600
FC00
7000
ENDCHAR

STARTCHAR u
ENCODING 117
SWIDTH 635 0
DWIDTH 21 0
BBX 18 18 2 0
BITMAP
7F01C0
7E0380
1E0380
1C0380
1C0780
1C0700
380700
380F00
380E00
700E00
701E00
701C00
F03C40
E07CC0
E1D980
E33B00
FE3E00
781C00
ENDCHAR

STARTCHAR v
ENCODING 118
SWIDTH 542 0
DWIDTH 18 0
BBX 15 18 2 0
BITMAP
FE1C
FC1C
1C1E
1C1E
380E
3806
3806
7804
7004
700C
F00C
E018
E018
E030
E060
F0C0
7F80
1E00
ENDCHAR

STARTCHAR w
ENCODING 119
SWIDTH 812 0
DWIDTH 27 0
BBX 24 18 2 0
BITMAP
7E070E
FE070F
1E0F0F
1C0E07
1C0E03
3C0E03
381E03
381C02
781C02
703C06
703804
70780C
E07808
E0D818
E1B830
E33C60
7E1FC0
3C0F00
ENDCHAR

STARTCHAR x
ENCODING 120
SWIDTH 583 0
DWIDTH 19 0
BBX 19 18 0 0
BITMAP
0781C0
0F83E0
1BC7E0
11C640
31EC00
00F800
00F000
00E000
007000
00F000
00B000
013800
033800
063860
E43CC0
FC1C80
F81F00
600E00
ENDCHAR

STARTCHAR y
ENCODING 121
SWIDTH 521 0
DWIDTH 17 0
BBX 19 24 -3 -6
BITMAP
0380C0
07C1E0
07C1E0
0DC0E0
0CE060
08E060
00E040
00E0C0
00E0C0
00E080
00E180
00E300
00E200
007600
007C00
007800
007000
007000
006000
00C000
618000
F70000
FE0000
780000
ENDCHAR

STARTCHAR z
ENCODING 122
SWIDTH 510 0
DWIDTH 17 0
BBX 18 18 -1 0
BITMAP
03E0C0
07FF80
0FFD80
0C0300
180600
000C00
001800
007000
00E000
018000
030000
060000
0C0000
100300
27E300
7FFE00
F3FC00
007800
ENDCHAR

STARTCHAR braceleft
ENCODING 123
SWIDTH 479 0
DWIDTH 16 0
BBX 12 30 7 -5
BITMAP
0030
00C0
0100
0300
0600
0600
0E00
0E00
0E00
0E00
0C00
0C00
1800
1000
6000
C000
2000
2000
3000
3000
3000
7000
6000
E000
C000
C000
C000
C000
4000
3000
ENDCHAR

STARTCHAR bar
ENCODING 124
SWIDTH 510 0
DWIDTH 17 0
BBX 2 28 7 -1
BITMAP
C0
C0
C0
C0
C0
C0
C0
C0
C0
C0
C0
C0
C0
C0
C0
C0
C0
C0
C0
C0
C0
C0
C0
C0
C0
C0
C0
C0
ENDCHAR

STARTCHAR braceright
ENCODING 125
SWIDTH 479 0
DWIDTH 16 0
BBX 12 30 2 -5
BITMAP
0080
0060
0020
0030
0030
0030
0070
0070
0060
00E0
00C0
00C0
00C0
0040
0020
0030
0040
0180
0300
0300
0700
0700
0700
0700
0600
0600
0C00
0C00
3000
C000
ENDCHAR

STARTCHAR asciitilde
ENCODING 126
SWIDTH 667 0
DWIDTH 22 0
BBX 18 5 2 8
BITMAP
1C0040
7F8040
41F080
407F80
800E00
ENDCHAR

STARTCHAR space
ENCODING 160
SWIDTH 250 0
DWIDTH 10 0
BBX 0 0 0 0
BITMAP
ENDCHAR

STARTCHAR afii10023
ENCODING 161
SWIDTH 708 0
DWIDTH 23 0
BBX 26 32 -1 0
BITMAP
00060C00
000F1E00
000F1E00
00060C00
00000000
00000000
00000000
03FFFFC0
03FFFF80
00780780
00700380
00700380
00F00300
00F00300
00E06300
01E0C000
01E0C000
01C1C000
01FF8000
03FF8000
03C78000
03C38000
03830000
07830200
07830600
07000600
07000C00
0F001C00
0F003C00
0F00FC00
7FFFF800
FFFFF800
ENDCHAR

STARTCHAR afii10051
ENCODING 162
SWIDTH 842 0
DWIDTH 28 0
BBX 24 25 3 0
BITMAP
3FFFFC
3FFFFC
783C3C
70381C
607808
C07818
C07018
007000
00F000
00F1F8
00E7FC
01EE1E
01F80F
01E00F
01C00F
03C00F
03C00F
03800F
03801E
07801E
07801E
07003C
0F0678
7FF3F0
7FF1E0
ENDCHAR

STARTCHAR afii10052
ENCODING 163
SWIDTH 676 0
DWIDTH 22 0
BBX 25 32 0 0
BITMAP
00000800
00003800
0000F800
0001E000
00060000
00000000
00000000
07FFFF80
07FFFF80
00F00780
00F00380
00F00300
00E00300
01E00300
01E00300
01C00000
01C00000
03C00000
03C00000
03800000
07800000
07800000
07800000
07000000
0F000000
0F000000
0E000000
0E000000
1E000000
1E000000
FFC00000
FFC00000
ENDCHAR

STARTCHAR afii10053
ENCODING 164
SWIDTH 708 0
DWIDTH 23 0
BBX 23 25 2 0
BITMAP
001F80
00FFF0
01E078
07C03E
0F001C
1F001C
1E000C
3C000C
3C000C
780000
780000
7FF800
FFF800
F00000
F00000
F00000
F00000
F00030
F00030
780060
7800C0
3C01C0
1F0700
0FFE00
03F800
ENDCHAR

STARTCHAR afii10054
ENCODING 165
SWIDTH 646 0
DWIDTH 21 0
BBX 21 25 1 0
BITMAP
007F80
01E1F0
0380F8
070070
070070
0F0030
0F0020
0F8020
07C000
07E000
03F800
01FE00
007F00
001F80
0007C0
0003E0
3001E0
3001E0
7001E0
7001E0
7001C0
780380
FC0780
7FFE00
03F000
ENDCHAR

STARTCHAR afii10055
ENCODING 166
SWIDTH 406 0
DWIDTH 13 0
BBX 16 25 0 0
BITMAP
07FF
07FF
0078
00F0
00F0
00F0
00E0
01E0
01E0
01E0
01C0
03C0
03C0
0380
0380
0780
0780
0700
0F00
0F00
0F00
0E00
1E00
FFE0
FFE0
ENDCHAR

STARTCHAR afii10056
ENCODING 167
SWIDTH 406 0
DWIDTH 13 0
BBX 18 32 -1 0
BITMAP
00C180
01E3C0
01E3C0
00C180
000000
000000
000000
03FF80
03FF80
007800
007800
007800
007000
00F000
00F000
00F000
00E000
01E000
01E000
01C000
03C000
03C000
03C000
038000
078000
078000
070000
070000
0F0000
0F0000
7FF000
FFE000
ENDCHAR

STARTCHAR afii10057
ENCODING 168
SWIDTH 615 0
DWIDTH 20 0
BBX 23 25 0 0
BITMAP
000FFE
001FFE
0000E0
0001E0
0001E0
0001C0
0001C0
0003C0
0003C0
000380
000780
000780
000780
000700
000F00
100F00
780E00
F80E00
F81E00
F01E00
E03C00
603C00
707800
3FE000
0F8000
ENDCHAR

STARTCHAR afii10058
ENCODING 169
SWIDTH 1096 0
DWIDTH 36 0
BBX 36 25 -1 0
BITMAP
003FFFFE00
003FFFFE00
000780F000
000700E000
000701E000
000601E000
000601C000
000601C000
000C03C000
000C03C000
000C038000
001803FE00
001807FF80
00100783E0
00300701E0
00300F00F0
00600F00F0
00600E00F0
00400E00F0
00C01E01F0
70801E01E0
F9801C03E0
FF003C07C0
7E01FFFF00
3C01FFF800
ENDCHAR

STARTCHAR afii10059
ENCODING 170
SWIDTH 1061 0
DWIDTH 35 0
BBX 34 25 -1 0
BITMAP
03FF1FF800
07FF3FF800
007003C000
00F0038000
00F0078000
00F0078000
00E0070000
01E0070000
01E00F0000
01C00F0000
01C00E0000
03FFFFF800
03FFFFFF00
03801C0F80
03801C0780
07803C03C0
07803C03C0
07003803C0
0F003803C0
0F007807C0
0F00780780
0E00700F80
1E00F81F00
7FE3FFFC00
FFE7FFE000
ENDCHAR

STARTCHAR afii10060
ENCODING 171
SWIDTH 847 0
DWIDTH 28 0
BBX 24 25 3 0
BITMAP
3FFFFE
3FFFFC
7C3C1C
70381C
60380C
C07808
C07808
007000
00F000
00F0F8
00E3FC
00EE1E
01F81E
01F01E
01C01C
01C01C
03C03C
03C03C
038038
038038
078078
078078
078078
7FF3FF
7FF7FE
ENDCHAR

STARTCHAR afii10061
ENCODING 172
SWIDTH 779 0
DWIDTH 26 0
BBX 29 31 0 0
BITMAP
00000600
00001F00
00003E00
0000F000
00000000
00000000
07FF00E0
07FE01F0
00F003F8
00F007F0
00F00620
00E00C00
01E01800
01E01800
01C03000
01C03000
03C06000
0380C000
03FF8000
07FF8000
0783C000
0781C000
0701E000
0F00E000
0F00E000
0E007000
0E007000
1E007800
1E003800
FFC03F00
FFC03F00
ENDCHAR

STARTCHAR hyphen
ENCODING 173
SWIDTH 281 0
DWIDTH 9 0
BBX 7 2 1 8
BITMAP
FE
FE
ENDCHAR

STARTCHAR afii10062
ENCODING 174
SWIDTH 738 0
DWIDTH 24 0
BBX 25 32 4 0
BITMAP
00707000
00707000
00707000
0030E000
001FC000
00000000
00000000
7FE0FF80
7FC0FF80
1F001C00
0E001800
0F003800
0F003000
07006000
0700E000
0780C000
07818000
03818000
03830000
03C60000
01C40000
01CC0000
01F80000
01F00000
00F00000
00E00000
70C00000
F0C00000
F9800000
FB000000
FE000000
7C000000
ENDCHAR

STARTCHAR afii10145
ENCODING 175
SWIDTH 823 0
DWIDTH 27 0
BBX 30 30 0 -5
BITMAP
07FF0FFC
07FE1FFC
00F001E0
00F001C0
00E003C0
01E003C0
01E00380
01E00380
01C00780
03C00780
03C00700
03C00700
03800F00
07800F00
07800E00
07001E00
07001E00
0F001E00
0F001C00
0E003C00
1E003C00
1E003800
1E007C00
FFFFFF00
FFFFFF00
00FC0000
00700000
00700000
00600000
00600000
ENDCHAR

STARTCHAR afii10017
ENCODING 176
SWIDTH 753 0
DWIDTH 25 0
BBX 26 25 -2 0
BITMAP
00006000
00006000
0000E000
0001F000
0001F000
00037000
00067000
00067000
000C7000
00187800
00187800
00303800
00603800
00603800
00C03800
01FFFC00
01FFFC00
03003C00
03001C00
06001C00
0C001C00
1C001E00
3C001E00
FF80FFC0
FF80FF80
ENDCHAR

STARTCHAR afii10018
ENCODING 177
SWIDTH 767 0
DWIDTH 25 0
BBX 26 25 -1 0
BITMAP
03FFFFC0
03FFFFC0
007803C0
00780180
00700180
00F00180
00F00180
00E00100
00E00000
01E00000
01C00000
01FFE000
01FFF800
03C03C00
03C01E00
03800F00
03800F00
07800F00
07800F00
07000F00
0F001E00
0F003E00
0F007C00
1F01F000
FFFFC000
ENDCHAR

STARTCHAR afii10019
ENCODING 178
SWIDTH 766 0
DWIDTH 25 0
BBX 25 25 -1 0
BITMAP
03FFF000
03FFFE00
00780F00
00700780
00F00780
00F00780
00E00780
00E00780
01E00F00
01E00E00
01C03C00
01FFE000
03FFF000
03C03C00
03C01E00
07800E00
07800F00
07800F00
07800F00
0F001F00
0F001E00
0F003E00
1F007C00
FFFFF000
FFFF8000
ENDCHAR

STARTCHAR afii10020
ENCODING 179
SWIDTH 676 0
DWIDTH 22 0
BBX 25 25 0 0
BITMAP
07FFFF80
07FFFF80
00F00780
00F00380
00F00300
00E00300
01E00300
01E00300
01C00000
01C00000
03C00000
03C00000
03800000
07800000
07800000
07800000
07000000
0F000000
0F000000
0E000000
0E000000
1E000000
1E000000
FFC00000
FFC00000
ENDCHAR

STARTCHAR afii10021
ENCODING 180
SWIDTH 803 0
DWIDTH 26 0
BBX 32 30 -3 -5
BITMAP
001FFFFF
001FFFFF
00038078
00030070
000300F0
000700F0
000600E0
000601E0
000601E0
000C01E0
000C01C0
000C03C0
000803C0
00180380
00100380
00300780
00300780
00600700
00600F00
00C00F00
01800F00
03000E00
06001E00
3FFFFFC0
3FFFFFC0
3C0003C0
700001C0
60000180
60000180
C0000180
ENDCHAR

STARTCHAR afii10022
ENCODING 181
SWIDTH 708 0
DWIDTH 23 0
BBX 25 25 0 0
BITMAP
07FFFF80
07FFFF00
00F00F00
00F00700
00E00700
00E00600
01E00600
01E0C600
01C08000
01C18000
03C38000
03FF8000
03FF0000
07870000
07870000
07830000
07060400
0F060C00
0F000C00
0E001800
0E003800
1E007800
1E01F800
FFFFF000
FFFFF000
ENDCHAR

STARTCHAR afii10024
ENCODING 182
SWIDTH 1175 0
DWIDTH 39 0
BBX 43 25 -2 0
BITMAP
007007FE01E0
00F807FE03E0
00F801F007E0
00FC00E00FE0
007C01E00C00
000C01E01800
000401C01800
000401C03000
000603C03000
000603C06000
00060380C000
000307818000
0001FFFF0000
000FFFFF0000
001E07078000
003C0F03C000
00780F01C000
00F80E01C000
01F00E01E000
03E01E00E000
03C01E00E000
07801C00F000
0F003C007000
7F01FF807E00
FE03FF807E00
ENDCHAR

STARTCHAR afii10025
ENCODING 183
SWIDTH 632 0
DWIDTH 21 0
BBX 22 26 0 -1
BITMAP
001FC0
00FFF0
01E078
03803C
03803C
07003C
06003C
0C007C
000078
0000F0
0003E0
000F80
007C00
001F80
0003C0
0003E0
0001E0
0001E0
0001E0
0001E0
C003C0
C007C0
600F80
703F00
1FFC00
07F000
ENDCHAR

STARTCHAR afii10026
ENCODING 184
SWIDTH 823 0
DWIDTH 27 0
BBX 30 25 0 0
BITMAP
07FF0FFC
07FF0FFC
00F001E0
00F001C0
00F003C0
00E007C0
01E00FC0
01E01B80
01E03380
01C06780
03C0C780
03C18700
03830F00
03860F00
078C0F00
07980E00
07301E00
0F601E00
0F401C00
0F801C00
0F003C00
1E003C00
1E007C00
FFE3FF80
FFC3FF00
ENDCHAR

STARTCHAR afii10027
ENCODING 185
SWIDTH 823 0
DWIDTH 27 0
BBX 30 32 0 0
BITMAP
00070700
00070700
00070700
00070E00
0001FC00
00000000
00000000
07FF1FFC
07FE1FF8
00F003C0
00F003C0
00E007C0
01E00F80
01E01F80
01E03780
01C07780
03C0E700
03C1CF00
03838F00
03870E00
078E0E00
079C1E00
07381E00
0F701C00
0F601C00
0EC03C00
0F803C00
1F003800
1E003800
1E007800
FFC3FF00
FFC3FF00
ENDCHAR

STARTCHAR afii10028
ENCODING 186
SWIDTH 779 0
DWIDTH 26 0
BBX 29 25 0 0
BITMAP
07FF00E0
07FE01F0
00F003F8
00F007F0
00F00620
00E00C00
01E01800
01E01800
01C03000
01C03000
03C06000
0380C000
03FF8000
07FF8000
0783C000
0781C000
0701E000
0F00E000
0F00E000
0E007000
0E007000
1E007800
1E003800
FFC03F00
FFC03F00
ENDCHAR

STARTCHAR afii10029
ENCODING 187
SWIDTH 830 0
DWIDTH 27 0
BBX 31 25 -1 0
BITMAP
003FFFFE
003FFFFE
000F80F0
000700E0
000700E0
000601E0
000E01E0
000C01C0
000C03C0
000C03C0
001803C0
00180380
00100780
00300780
00300700
00600700
00600F00
00400F00
00C00E00
00C01E00
71801E00
F1801E00
FB003C00
FE01FFC0
7801FF80
ENDCHAR

STARTCHAR afii10030
ENCODING 188
SWIDTH 979 0
DWIDTH 32 0
BBX 35 25 0 0
BITMAP
07FC001FE0
07EC0037E0
00DC003700
00DC006E00
00DC00EE00
009C00DE00
009C019E00
019C019C00
019E031C00
011E063C00
031E063C00
030E0C3800
030E0C7800
020E187800
060E307800
060E307000
060E60F000
040E60F000
0C0FC0E000
0C0F80E000
0C0F81E000
1C0F01E000
3C0601E000
FF860FFC00
FF841FF800
ENDCHAR

STARTCHAR afii10031
ENCODING 189
SWIDTH 812 0
DWIDTH 27 0
BBX 30 25 0 0
BITMAP
07FF1FFC
07FE1FF8
00F003C0
00F003C0
00E003C0
00E003C0
01E00380
01E00780
01C00780
01C00700
03C00700
03FFFF00
03FFFF00
07800E00
07801E00
07001E00
07001E00
0F001C00
0F003C00
0E003C00
0E003C00
1E003800
1E007800
FFC3FF00
FFC3FF00
ENDCHAR

STARTCHAR afii10032
ENCODING 190
SWIDTH 787 0
DWIDTH 26 0
BBX 24 25 2 0
BITMAP
003FC0
00F0F0
01C038
07801C
0F000E
0E000E
1E000F
3C000F
3C000F
78000F
78000F
78000F
F8001F
F0001E
F0001E
F0001E
F0003C
F0003C
700078
700078
7800F0
3801E0
1C03C0
0F1F00
03FC00
ENDCHAR

STARTCHAR afii10033
ENCODING 191
SWIDTH 823 0
DWIDTH 27 0
BBX 30 25 0 0
BITMAP
03FFFFFC
07FFFFFC
007001E0
00F001E0
00F001C0
00E003C0
00E003C0
01E003C0
01E00380
01C00780
01C00780
03C00700
03C00700
03800F00
07800F00
07800E00
07001E00
07001E00
0F001E00
0F001C00
0E003C00
0E003C00
1E003C00
FFC3FF80
FFC3FF80
ENDCHAR

STARTCHAR afii10034
ENCODING 192
SWIDTH 704 0
DWIDTH 23 0
BBX 25 25 -1 0
BITMAP
03FFE000
03FFFC00
00781E00
00700700
00F00780
00F00780
00F00780
00E00780
01E00780
01E00F00
01E01F00
01C03E00
03FFF800
03FFC000
03800000
03800000
07800000
07800000
07000000
0F000000
0F000000
0F000000
0F000000
7FE00000
FFE00000
ENDCHAR

STARTCHAR afii10035
ENCODING 193
SWIDTH 708 0
DWIDTH 23 0
BBX 22 25 2 0
BITMAP
003FC0
00F0F0
03C03C
07801C
0F001C
1E000C
1E000C
3C000C
3C0008
780000
780000
F80000
F00000
F00000
F00000
F00000
F00000
F00030
F00030
780060
7800C0
3C01C0
1F0700
0FFE00
03F800
ENDCHAR

STARTCHAR afii10036
ENCODING 194
SWIDTH 708 0
DWIDTH 23 0
BBX 24 25 3 0
BITMAP
1FFFFF
1FFFFE
3E1E1E
381C0E
303C0E
603C0C
60380C
C0380C
C0780C
007800
007000
00F000
00F000
00F000
00E000
01E000
01E000
01E000
01C000
03C000
03C000
038000
078000
7FF800
7FF800
ENDCHAR

STARTCHAR afii10037
ENCODING 195
SWIDTH 738 0
DWIDTH 24 0
BBX 26 25 3 0
BITMAP
3FE07FC0
7FE07FC0
0F000E00
0F000C00
0F001800
07001800
07803000
07806000
03806000
0380C000
03C18000
03C10000
01C30000
01C60000
01EC0000
00EC0000
00F80000
00F00000
00F00000
70600000
F8C00000
F9800000
FB800000
7F000000
3C000000
ENDCHAR

STARTCHAR afii10038
ENCODING 196
SWIDTH 874 0
DWIDTH 29 0
BBX 27 25 2 0
BITMAP
001FFC00
001FF800
0003C000
007FF800
03FFFF00
07878780
1E0783C0
3C0781C0
3C0701E0
780F01E0
700F01E0
700F01E0
F00E01E0
F01E01C0
F01E01C0
F01E03C0
701C0780
783C0700
383C0F00
3C383C00
0FFFF000
01FF8000
00780000
03FF0000
07FF0000
ENDCHAR

STARTCHAR afii10039
ENCODING 197
SWIDTH 760 0
DWIDTH 25 0
BBX 30 25 -1 0
BITMAP
03FF0FFC
07FF0FF8
007803C0
00780380
00380700
003C0E00
001C1C00
001E3800
001E7000
000F6000
000FC000
00078000
00078000
000F8000
001DC000
0039C000
0061E000
00C0E000
0180F000
03007000
06007800
0E007800
1E003C00
FFC3FF80
FFC3FF00
ENDCHAR

STARTCHAR afii10040
ENCODING 198
SWIDTH 823 0
DWIDTH 27 0
BBX 30 30 0 -5
BITMAP
07FF0FFC
07FE1FFC
00F001E0
00F001C0
00E003C0
01E003C0
01E00380
01E00380
01C00780
03C00780
03C00700
03C00F00
03800F00
07800F00
07800E00
07801E00
07001E00
0F001E00
0F003C00
0F003C00
1E003C00
1E003C00
1E007C00
FFFFFF80
FFFFFF80
00000780
00000300
00000300
00000300
00000300
ENDCHAR

STARTCHAR afii10041
ENCODING 199
SWIDTH 779 0
DWIDTH 26 0
BBX 25 25 4 0
BITMAP
FFC1FF80
FFC3FF80
1E007C00
1C003800
3C007800
3C007800
3C007000
3800F000
7800F000
7800F000
7801E000
7807E000
3C0EE000
3FF9C000
1FF1C000
0783C000
0003C000
00038000
00078000
00078000
00078000
00070000
000F0000
007FE000
007FE000
ENDCHAR

STARTCHAR afii10042
ENCODING 200
SWIDTH 1141 0
DWIDTH 38 0
BBX 41 25 0 0
BITMAP
03FF1FF1FF80
03FE1FF1FF00
00F007807800
00F007807800
00F007007800
00E00F007800
00E00F007000
01E00F00F000
01E00E00F000
01C01E00E000
03C01E00E000
03C01C01E000
03803C01E000
03803C01C000
07803C03C000
07803803C000
070078038000
070078038000
0F0078078000
0F0070078000
0E00F0070000
1E00F0070000
1E00E00F0000
FFFFFFFFE000
FFFFFFFFC000
ENDCHAR

STARTCHAR afii10043
ENCODING 201
SWIDTH 1132 0
DWIDTH 37 0
BBX 40 30 0 -5
BITMAP
03FF1FF1FF
03FE1FF1FF
00F0078078
00F0078078
00F0070078
00E00F0070
00E00F0070
01E00E00F0
01E00E00F0
01C01E00E0
03C01E00E0
03C01C01E0
03803C01C0
03803C01C0
07803C03C0
07803803C0
0700780380
0F00780380
0F00700780
0F00700780
0E00F00700
1E00F00700
1E00E00F00
FFFFFFFFF0
FFFFFFFFE0
00000000E0
00000000E0
0000000060
0000000040
00000000C0
ENDCHAR

STARTCHAR afii10044
ENCODING 202
SWIDTH 881 0
DWIDTH 29 0
BBX 25 25 2 0
BITMAP
1FFFC000
1FFFC000
3E1E0000
381C0000
303C0000
703C0000
60380000
C0380000
00780000
00780000
00700000
007FE000
00FFFC00
00F01F00
00E00F00
01E00780
01E00780
01E00780
01C00780
03C00F80
03C00F00
03801F00
07803E00
3FFFF800
3FFFC000
ENDCHAR

STARTCHAR afii10045
ENCODING 203
SWIDTH 1083 0
DWIDTH 36 0
BBX 39 25 0 0
BITMAP
03FF000FFE
07FE000FFE
00700001E0
00700001E0
00F00001C0
00F00001C0
00E00003C0
01E00003C0
01E0000380
01E0000380
01C0000780
03FF800780
03FFF00700
03807C0F00
03803C0F00
07801E0E00
07801E0E00
07001E1E00
0F001E1E00
0F003E1C00
0F003C1C00
0E007C3C00
1E00F83C00
FFFFE1FFC0
FFFF03FF80
ENDCHAR

STARTCHAR afii10046
ENCODING 204
SWIDTH 739 0
DWIDTH 24 0
BBX 23 25 0 0
BITMAP
03FF00
07FE00
00F000
00F000
00F000
00E000
01E000
01E000
01E000
01C000
03C000
03FF80
03FFF0
03807C
07803C
07801E
07001E
0F001E
0F001E
0F003E
0E003C
1E007C
1E00F8
FFFFE0
FFFF00
ENDCHAR

STARTCHAR afii10047
ENCODING 205
SWIDTH 703 0
DWIDTH 23 0
BBX 22 25 1 0
BITMAP
00FF80
07C3E0
0F00F0
0E0078
1C0038
1C003C
18003C
18003C
10003C
00003C
00003C
007FFC
007FFC
000078
000078
0000F8
0000F0
8001F0
C001E0
C003C0
600780
600F80
383E00
1FFC00
07E000
ENDCHAR

STARTCHAR afii10048
ENCODING 206
SWIDTH 1133 0
DWIDTH 37 0
BBX 38 25 0 0
BITMAP
03FF003E00
07FF01FFC0
00780780E0
00F00E0070
00F01C0078
00F0380038
00E078003C
01E0F0003C
01E0F0003C
01C1E0003C
01C1E0003C
03FFE0003C
03FFE0007C
0383C00078
0383C00078
0783C000F8
0783C000F0
0703C000F0
0F01C001E0
0F01C001C0
0F01E003C0
0E00E00780
1E00700E00
FFE03C7C00
FFC00FF000
ENDCHAR

STARTCHAR afii10049
ENCODING 207
SWIDTH 746 0
DWIDTH 25 0
BBX 29 25 -2 0
BITMAP
0003FFF8
000FFFF8
003E03C0
007C03C0
00780380
00700380
00F00780
00F00780
00F00700
00700F00
00700F00
00380E00
000FFE00
003FFE00
00781E00
00F01C00
00F01C00
01E03C00
03C03C00
03C03800
07803800
0F807800
1F007800
7E03FF00
FE03FE00
ENDCHAR

STARTCHAR afii10065
ENCODING 208
SWIDTH 604 0
DWIDTH 20 0
BBX 18 18 1 0
BITMAP
03E080
07F380
0F1B80
1E0F00
3C0F00
380700
780E00
700E00
F00E00
F01E00
E01C00
E01C00
E01C00
E038C0
E07980
71BB00
7F3E00
3C1C00
ENDCHAR

STARTCHAR afii10066
ENCODING 209
SWIDTH 551 0
DWIDTH 18 0
BBX 20 26 2 0
BITMAP
000030
000070
00FFE0
03FFC0
07FC00
0E0000
0C0000
180000
11F800
371E00
340E00
2C0700
780700
700700
700700
F00700
F00F00
E00F00
E00E00
E00E00
E01E00
E01C00
603800
707000
38E000
0FC000
ENDCHAR

STARTCHAR afii10067
ENCODING 210
SWIDTH 488 0
DWIDTH 16 0
BBX 14 18 1 0
BITMAP
03F0
073C
0C1C
1C1C
381C
7838
7070
71C0
FFC0
FCF0
E038
E038
E038
E038
E078
7070
39E0
1FC0
ENDCHAR

STARTCHAR afii10068
ENCODING 211
SWIDTH 439 0
DWIDTH 14 0
BBX 14 18 1 0
BITMAP
01F0
07F8
1C3C
001C
001C
003C
0078
00F0
03C0
1E00
3C00
7000
E000
E000
E030
F0E0
7FC0
3E00
ENDCHAR

STARTCHAR afii10069
ENCODING 212
SWIDTH 542 0
DWIDTH 18 0
BBX 16 25 2 0
BITMAP
03C0
00F0
0038
001C
000E
000E
0007
03C7
0FF7
1C17
380F
380F
700F
700F
F00F
E00E
E00E
E01E
E01C
E01C
E038
6038
7070
38E0
1F80
ENDCHAR

STARTCHAR afii10070
ENCODING 213
SWIDTH 458 0
DWIDTH 15 0
BBX 14 18 1 0
BITMAP
00F0
07F8
0E1C
1C1C
381C
381C
7038
7070
F1E0
E780
FE00
F000
E000
E000
F038
70E0
3FC0
1F00
ENDCHAR

STARTCHAR afii10072
ENCODING 214
SWIDTH 975 0
DWIDTH 32 0
BBX 32 18 1 0
BITMAP
0780607C
1FE0E1CE
30E0E38F
6070C30E
0070C706
0071C600
00718E00
00718E00
007FFC00
00E39C00
00E31C00
00C31C00
41C71C00
E1861C0C
E3860E08
E70E0E30
7E0E07E0
380C03C0
ENDCHAR

STARTCHAR afii10073
ENCODING 215
SWIDTH 490 0
DWIDTH 16 0
BBX 16 18 0 0
BITMAP
01F8
0FFE
0E0F
0C07
1807
1807
000E
001C
03F0
03F8
003C
001C
701C
F01C
F03C
E038
70F0
3FC0
ENDCHAR

STARTCHAR afii10074
ENCODING 216
SWIDTH 629 0
DWIDTH 21 0
BBX 18 18 2 0
BITMAP
7F01C0
3E0380
1E0380
1C0380
1C0700
1C0700
380700
380F00
380E00
700E00
701E00
701C00
E03C40
E07CC0
E1B980
E33B00
FE3E00
781C00
ENDCHAR

STARTCHAR afii10075
ENCODING 217
SWIDTH 635 0
DWIDTH 21 0
BBX 18 25 2 0
BITMAP
00C100
00E300
00FE00
003C00
000000
000000
000000
7F01C0
1E0380
1E0380
1C0380
1C0700
1C0700
380700
380E00
380E00
700E00
701E00
701C00
E03C40
E0FCC0
E1B980
E33900
FE3E00
781C00
ENDCHAR

STARTCHAR afii10076
ENCODING 218
SWIDTH 594 0
DWIDTH 20 0
BBX 20 18 1 0
BITMAP
3F00E0
3F01F0
0F03F0
0E0260
0E0400
0E0C00
1C1800
1C3000
1FE000
3CF000
387000
387800
783800
703800
703800
701C00
E01F80
E01F00
ENDCHAR

STARTCHAR afii10077
ENCODING 219
SWIDTH 646 0
DWIDTH 21 0
BBX 21 18 -1 0
BITMAP
03FFF8
03FFF0
006070
00E0F0
00C0E0
00C0E0
0081E0
0181C0
0181C0
0101C0
030380
020380
020380
060398
E40730
FC0760
F807C0
700380
ENDCHAR

STARTCHAR afii10078
ENCODING 220
SWIDTH 854 0
DWIDTH 28 0
BBX 28 18 -1 0
BITMAP
03F801E0
03D80360
00F802E0
00D806C0
00980DC0
009809C0
019C19C0
019C3380
011C2380
011C6380
031CC700
021C8700
021D8700
061F0F30
641E0E60
FC1E0EC0
F81C0F80
70180700
ENDCHAR

STARTCHAR afii10079
ENCODING 221
SWIDTH 644 0
DWIDTH 21 0
BBX 20 19 1 0
BITMAP
1F0000
7F01E0
0E01C0
0E01C0
0E0380
1E0380
1C0380
1C0780
1FFF00
3FFF00
380F00
380E00
780E00
700E30
700E60
701CC0
E01D80
E01F00
E00E00
ENDCHAR

STARTCHAR afii10080
ENCODING 222
SWIDTH 531 0
DWIDTH 18 0
BBX 16 18 1 0
BITMAP
03F8
0F1C
1E0E
3C07
3807
7807
7007
F007
F00F
F00F
E00F
E00E
E01E
E01C
6038
7078
38E0
1FC0
ENDCHAR

STARTCHAR afii10081
ENCODING 223
SWIDTH 635 0
DWIDTH 21 0
BBX 20 18 1 0
BITMAP
3F0F80
7F3FC0
0E73C0
0EC1C0
0F81C0
0F03C0
1E0380
1C0380
1C0780
3C0700
380F00
380F00
380E00
701E30
701C60
701CC0
F01F80
E00E00
ENDCHAR

STARTCHAR afii10082
ENCODING 224
SWIDTH 583 0
DWIDTH 19 0
BBX 22 24 -3 -6
BITMAP
03F1E0
03F3F8
007E38
00781C
00F01C
00E01C
00E01C
01E01C
01C03C
01C03C
01C038
038078
038070
03C0F0
07C1E0
0763C0
073F80
071E00
0E0000
0E0000
0E0000
1E0000
1E0000
FFC000
ENDCHAR

STARTCHAR afii10083
ENCODING 225
SWIDTH 458 0
DWIDTH 15 0
BBX 14 18 1 0
BITMAP
03F0
0E38
1C3C
1C3C
3818
7800
7000
F000
F000
E000
E000
E000
E000
E018
F070
70E0
7F80
1E00
ENDCHAR

STARTCHAR afii10084
ENCODING 226
SWIDTH 906 0
DWIDTH 30 0
BBX 28 18 1 0
BITMAP
3F0F0780
7F3F8FC0
077399C0
0EC3B1C0
0F83E1C0
0F07C1C0
1E078380
1C070380
1C070380
1C0E0300
380E0700
380E0700
381E0600
781C0E30
701C0E60
701C0EC0
70380F80
E0380700
ENDCHAR

STARTCHAR afii10085
ENCODING 227
SWIDTH 510 0
DWIDTH 17 0
BBX 19 24 -2 -6
BITMAP
0380C0
07C1E0
07C1E0
0DC0E0
08E060
08E060
00E040
00E0C0
00E0C0
00E080
00E180
00E300
00E200
007600
007C00
007800
007000
007000
006000
00C000
618000
F70000
FE0000
780000
ENDCHAR

STARTCHAR afii10086
ENCODING 228
SWIDTH 759 0
DWIDTH 25 0
BBX 24 30 1 -5
BITMAP
00003E
0000EF
0000C7
000183
000380
000380
000300
03E73C
07F7FE
0E168F
1C1F07
3C0E07
380C07
781C07
701C07
701C0F
F0380E
E0380E
E0381E
E0701C
E0703C
E0F838
716870
7EEFE0
3CC380
01C000
C1C000
E38000
FF0000
3C0000
ENDCHAR

STARTCHAR afii10087
ENCODING 229
SWIDTH 573 0
DWIDTH 19 0
BBX 20 18 -1 0
BITMAP
0380E0
07C1F0
0DE3F0
18E660
10E400
00FC00
007800
007000
007000
007800
00D800
01B800
011C00
031C20
661C60
FC0EC0
F80F80
700700
ENDCHAR

STARTCHAR afii10088
ENCODING 230
SWIDTH 635 0
DWIDTH 21 0
BBX 18 23 2 -5
BITMAP
7F01C0
3E0380
1E0380
1C0380
1C0700
1C0700
380700
380F00
380E00
700E00
701E00
701C00
E03C00
E0FCC0
E1B980
E33980
FE3E80
781D80
000380
000300
000700
000E00
001800
ENDCHAR

STARTCHAR afii10089
ENCODING 231
SWIDTH 602 0
DWIDTH 20 0
BBX 18 18 2 0
BITMAP
FC0700
3C0700
3C0700
380E00
380E00
780E00
701E00
701C00
787C00
3FDC00
1F3800
003800
0038C0
007180
007300
007600
007C00
003800
ENDCHAR

STARTCHAR afii10090
ENCODING 232
SWIDTH 896 0
DWIDTH 30 0
BBX 27 18 2 0
BITMAP
7F0781E0
0E0701C0
1E0701C0
1C0F03C0
1C0E0380
1C0E0380
381E0380
381C0700
381C0700
703C0700
70380E00
70781E00
F0783E20
E0F06C60
E1B0DCC0
E7719D80
FC7F1F00
783C0E00
ENDCHAR

STARTCHAR afii10091
ENCODING 233
SWIDTH 895 0
DWIDTH 30 0
BBX 27 23 2 -5
BITMAP
7F0781E0
0E0701C0
1E0701C0
1C0F03C0
1C0E0380
1C0E0380
381E0380
381C0700
381C0700
703C0700
70380E00
70381E00
F0783E00
E0F06E60
E1B0DCC0
E7719DC0
FC7F1F40
783C0EC0
000001C0
00000180
00000380
00000700
00000C00
ENDCHAR

STARTCHAR afii10092
ENCODING 234
SWIDTH 573 0
DWIDTH 19 0
BBX 16 18 2 0
BITMAP
3CE0
7FE0
FE40
80C0
01C0
0380
0700
0EFC
1F8E
1E0F
3C07
3C07
380F
380F
381E
381C
1E78
0FE0
ENDCHAR

STARTCHAR afii10093
ENCODING 235
SWIDTH 798 0
DWIDTH 26 0
BBX 23 18 2 0
BITMAP
FE00FE
1E003C
1C001C
1C0038
3C0038
380038
39E078
7BF870
7C3870
781C70
F01CE0
F01CE0
E01CE2
E039C6
E079CC
60F1C8
71E1F0
1F80E0
ENDCHAR

STARTCHAR afii10094
ENCODING 236
SWIDTH 521 0
DWIDTH 17 0
BBX 14 18 2 0
BITMAP
FE00
1E00
1C00
1C00
1C00
3800
39E0
73F8
7C38
781C
F01C
F01C
E01C
E03C
E078
60F0
71E0
3F80
ENDCHAR

STARTCHAR afii10095
ENCODING 237
SWIDTH 448 0
DWIDTH 15 0
BBX 14 19 0 0
BITMAP
03E0
0FF0
1838
303C
601C
001C
001C
001C
03FC
07FC
003C
0038
0078
4070
E0F0
E0E0
E1C0
7F80
3C00
ENDCHAR

STARTCHAR afii10096
ENCODING 238
SWIDTH 805 0
DWIDTH 27 0
BBX 25 18 1 0
BITMAP
7F01FC00
1F038E00
0F0F0700
0E0E0300
0E1C0380
1E3C0380
1C3C0380
1C380380
1FF80780
3FF80780
38780780
38700700
78700F00
70700E00
70701C00
F0383800
E01C7000
E00FC000
ENDCHAR

STARTCHAR afii10097
ENCODING 239
SWIDTH 592 0
DWIDTH 20 0
BBX 20 18 -1 0
BITMAP
00FFE0
03E0E0
0380E0
0781C0
0701C0
0701C0
0703C0
038380
007F80
01FF80
038700
070700
0F0710
0E0E30
1C0E60
3C0EC0
F80F80
F00700
ENDCHAR

STARTCHAR afii61352
ENCODING 240
SWIDTH 1000 0
DWIDTH 33 0
BBX 35 25 -2 0
BITMAP
00F8007C00
01FC00FE00
003C01FE00
003C019C00
003C010000
003E030000
006E030000
006E020F80
004E0618C0
00CF063060
00CF067060
00C704E060
00878CE0E0
01878CE0E0
01838CC0C0
018398C1C0
0303D8C180
0303D86700
0301D03E00
0201F00000
0601F00000
6600F00000
FC00E00000
FC00E0FC00
7800C1FC00
ENDCHAR

STARTCHAR afii10071
ENCODING 241
SWIDTH 462 0
DWIDTH 15 0
BBX 15 24 1 0
BITMAP
070E
070E
070E
0000
0000
0000
00F0
03F8
0E1C
1C1C
381C
381C
7038
7070
F1E0
E780
FE00
F000
E000
E000
F038
70E0
3FC0
1F00
ENDCHAR

STARTCHAR afii10099
ENCODING 242
SWIDTH 563 0
DWIDTH 19 0
BBX 17 30 1 -5
BITMAP
0FC000
1FC000
038000
038000
3FFF00
078000
070000
070F00
0F3F80
0E6380
0EC380
0F0380
1E0380
1C0780
1C0700
380700
380F00
380F00
780E00
701E00
701C00
F01C00
E03800
E03800
E07000
007000
00E000
01C000
078000
0E0000
ENDCHAR

STARTCHAR afii10100
ENCODING 243
SWIDTH 510 0
DWIDTH 17 0
BBX 19 25 -1 0
BITMAP
0001C0
0003C0
000780
001E00
003000
000000
000000
07FFE0
0FFFE0
01C0E0
01C0C0
03C0C0
0380C0
038000
038000
078000
070000
070000
0F0000
0E0000
0E0000
0E0000
1E0000
7F8000
FF8000
ENDCHAR

STARTCHAR afii10101
ENCODING 244
SWIDTH 469 0
DWIDTH 15 0
BBX 14 18 1 0
BITMAP
03F8
073C
1C1C
1C1C
381C
7800
7000
FF80
FF80
E000
E000
E000
E000
E018
F030
78E0
7FC0
1F00
ENDCHAR

STARTCHAR afii10102
ENCODING 245
SWIDTH 448 0
DWIDTH 15 0
BBX 15 18 0 0
BITMAP
03F8
0E3C
0C1E
1C1E
1C0C
1E00
0F00
0F80
07E0
03F0
00F8
0078
0038
7038
F038
7070
78E0
1FC0
ENDCHAR

STARTCHAR afii10103
ENCODING 246
SWIDTH 344 0
DWIDTH 11 0
BBX 9 25 2 0
BITMAP
0700
0780
0780
0300
0000
0000
0000
7F00
FE00
0E00
1E00
1C00
1C00
1C00
3C00
3800
3800
7800
7000
7000
F180
E300
E600
FC00
7000
ENDCHAR

STARTCHAR afii10104
ENCODING 247
SWIDTH 344 0
DWIDTH 11 0
BBX 10 24 2 0
BITMAP
71C0
71C0
71C0
0000
0000
0000
FF00
1E00
0E00
1C00
1C00
1C00
3C00
3800
3800
3800
7000
7000
7180
F300
E200
E600
FC00
7000
ENDCHAR

STARTCHAR afii10105
ENCODING 248
SWIDTH 344 0
DWIDTH 11 0
BBX 15 31 -4 -6
BITMAP
000C
001E
001E
000C
0000
0000
0000
00FC
00FC
001C
003C
0038
0038
0038
0038
0070
0070
0070
0070
00E0
00E0
00E0
00E0
01C0
01C0
01C0
0180
7380
F300
7E00
3C00
ENDCHAR

STARTCHAR afii10106
ENCODING 249
SWIDTH 850 0
DWIDTH 28 0
BBX 28 18 -1 0
BITMAP
01FFF800
01FFF800
00707000
00607000
0060F000
0040E000
00C0E780
0081EFE0
0081F0F0
0181E070
0103C070
0303C070
030380F0
020380F0
660381E0
FC0381C0
F801E780
70007E00
ENDCHAR

STARTCHAR afii10107
ENCODING 250
SWIDTH 845 0
DWIDTH 28 0
BBX 26 19 0 0
BITMAP
1F800000
3F00E000
0701E000
0701C000
0E01C000
0E03C000
0E038000
1C039E00
1FFFBF80
1FFFC3C0
1C0781C0
380701C0
380F01C0
380E01C0
780E03C0
700E0780
70070F00
70079E00
E001FC00
ENDCHAR

STARTCHAR afii10108
ENCODING 251
SWIDTH 635 0
DWIDTH 21 0
BBX 20 25 1 0
BITMAP
0FC000
0FC000
01C000
038000
1FFF80
038000
038000
070F80
071FC0
0773C0
0EC1C0
0F81C0
0F03C0
1E0380
1C0380
1C0780
1C0700
380700
380F00
380E00
701E30
701C60
701CC0
701F80
E00E00
ENDCHAR

STARTCHAR afii10109
ENCODING 252
SWIDTH 594 0
DWIDTH 20 0
BBX 20 25 1 0
BITMAP
000300
000780
000F00
003C00
006000
000000
000000
3F00E0
3F01F0
0F03F0
0E0260
0E0400
0E0C00
1C1800
1C3000
1FE000
3CF000
387000
387800
783800
703800
703800
701C00
E01F80
E01F00
ENDCHAR

STARTCHAR section
ENCODING 253
SWIDTH 489 0
DWIDTH 16 0
BBX 16 31 1 -6
BITMAP
00FC
01CF
0387
0307
0707
0700
0380
03C0
03C0
07E0
0EF0
1CF0
1878
3838
383C
381C
3C1C
1C1C
1E18
0F38
07B0
07C0
03C0
01C0
01E0
00E0
E0E0
E0C0
E1C0
F380
3F00
ENDCHAR

STARTCHAR afii10110
ENCODING 254
SWIDTH 510 0
DWIDTH 17 0
BBX 19 30 -2 -6
BITMAP
003040
0038C0
003F80
000E00
000000
000000
0180C0
07C1E0
07C1E0
0DC0E0
08E060
08E060
00E040
00E0C0
00E0C0
00E080
00E180
00E300
00E200
007600
007C00
007800
007000
007000
006000
00C000
618000
F70000
FE0000
780000
ENDCHAR

STARTCHAR afii10193
ENCODING 255
SWIDTH 635 0
DWIDTH 21 0
BBX 18 23 2 -5
BITMAP
7F01C0
7E0380
1E0380
1C0380
1C0780
1C0700
380700
380F00
380E00
700E00
701E00
701C00
E03C00
E0FCC0
E1B880
E33900
7E3E00
1C1C00
300000
300000
300000
F00000
600000
ENDCHAR
ENDFONT
